<svg xmlns="http://www.w3.org/2000/svg" viewBox="0 0 380.96 155.15">
  <path d="M102.8 124V58.6h177v65.4H102.8z" fill="#58B55C"/>
  <path d="M250.1 9.8c-.1 2.6-.3 6.7 1.7 8.6.8.7 1.8 1.1 3.1 1.1 6 0 11-4.4 11-9.8 0-4.7-4.9-8.5-10.8-8.5-2.7 0-4.9 2.2-4.9 4.8m1 22.8v13.2c.2.4 3.6 1.7 6.3 1.7 4.9 0 10-2.7 10-7.1 0-6.1-5.6-11.2-12.4-11.2-2.1 0-3.9 1.5-3.9 3.4M225.8 54.3c10.1-8.8 16-20 16.2-29 .1-10.4-3.5-17.7-12.5-24.5h37.6c5.2 0 10.4 2.8 10.4 7.4v8.2c0 4.3-7.8 8.9-7.8 8.9s4.6 3.4 6.2 5.3c2.9 3.1 4.2 5.7 4.2 9.8 0 7.2-7.8 13.9-14 13.9h-40.3M207.4 47.8l-.2-.3.4-.1c12.5-2.1 17-12.8 17-22.1 0-7.6-1.6-20.4-12.3-20.4-4 0-6 3.7-6 10.8v1.6c0 3-.1 5.1 1.6 7.9l.2.3h-12.8l.2-.3c2.5-4.7 3.6-7.8 3.6-13.2 0-5-2.7-7.7-7.3-11.7l-.4-.4h10.6c5.7 0 10.7 0 17.6.4 12.5.9 17.7 15.3 17.4 24.7-.4 13.3-15.2 29.3-20.8 29.3-4.1 0-8.6-6.3-8.8-6.5M170.8 13.7c0 4.2 1.5 6.7 4 10.3.9-.7 7.5-5.9 7.5-11.1 0-3-2-6.2-5.5-6.2-3.9 0-6 3.6-6 6.9m22.2 40.8c-7 0-12.1-8.9-14.7-14.6-2.4-5.1-7.8-7.2-11.8-9.1 2.9-1.8 4.8-2.9 7.3-5.1h-12.5V7.5c-3.6 2.5-6.5 5.3-8.9 6.9-1-6-7.2-9.6-14-9.6-13.4 0-21.9 11.4-21.9 23 0 12 9.7 22.5 23.4 23.1 11.5.4 29.2-9.6 33.6-9.6 0 0 1.7 1.6 2.3 2.7 2.3 4 3.8 7 7.3 10.5h-56.8c-14.7 0-23-13.3-23-26.2 0-14.3 11.3-27.6 27.6-27.6h16.7c5.6 0 9.1 1.2 13.5 4.1.4-1.2 0-1.9 0-3.2h23c6.7 0 10.9 5.8 10.9 11.6 0 5-1.6 8.3-5.8 11.7-2 1.6-5.1 4.3-5.1 4.3 0 2.4 17.7 19.4 24.4 25.3h-15.6" fill="#58B55C"/>
  <path d="M84.8 140.8h-6.3l-1.8 14.1h-4.3l1.8-14.1h-6.3l.4-3.2h16.9M90.2 145h.1c1.2-1.4 2.5-2 4-2 2.1 0 4.1 1.3 3.7 4.5l-1 7.4h-3.7l.9-6.7c.2-1.7-.5-2.5-1.6-2.5-.9 0-1.7.5-2.7 1.8l-1 7.4h-3.7l2.2-17.3h3.7" fill="#fff"/>
  <path d="M109.3 147.7c0-1.6-.7-2.5-2.2-2.5-1.4 0-2.5 1-2.9 2.5h5.1zm2.4 5.9c-2.3 1.5-4.6 1.5-5.5 1.5-4.1 0-6.5-2.4-6-6.1.5-3.5 3.4-6.1 7-6.1 3.4 0 5.9 2.5 5.2 6.7h-8.5c-.1 2.1 1.1 3.3 3.5 3.3 1.4 0 2.6-.4 4.5-1.7l-.2.5z" fill="#fff"/>
  <path d="M125.2 151.7c.7.7 1.3 1 2 .8 1.8.1 3-1.3 3.4-3.5.3-2.6-.9-3.7-2.5-3.7-.7 0-1.3.3-2.2.9l.2-.8m1-2.5c1.3-.7 2-1 3.1-1.1 3.4.1 5.5 2.6 5 6.1-.5 3.6-3.1 6.1-6.3 6.1-1.1 0-2.2-.4-3.1-1.1l-.1.9h-3.7l2.2-17.3h3.7l-1.5 5.4z" fill="#fff"/>
  <path d="M142.9 149.2c-2.3.8-3.4 1.3-3.5 2.5-.1.7.4 1.3 1 1.3.7 0 1.5-.4 2.2-.9l.3-.9zm5 2.9c-1.1.6-2.6 1-3.6 1-1.2.1-1.7-.4-1.9-1.3-1.5 1-2.7 1.3-4 1.3-1.9 0-3.1-1.4-2.9-2.9.3-2.8 2.5-3.4 7.6-4.9.2-1.1-.2-2-1.8-2-1.5 0-3.2.8-4.6 2l.4-3c1.6-.9 3.4-1.4 5.2-1.4 3 0 4.9 1 4.5 3.6l-.6 5.3c-.1.6.1.8.5.8.2 0 .5 0 1.5-.7l-1.2 2.5z" fill="#fff"/>
  <path d="M154.4 144.9c1.4-1.4 2.6-2 4.1-2 1.8 0 4.1 1.1 3.7 4.5l-1 7.5h-3.7l.9-7.1c.2-1.7-.5-2.4-1.5-2.4-.9 0-1.7.5-2.8 2l-1 7.5h-3.7l1.5-11.7h3.7l-.2 1.7z" fill="#fff"/>
  <path d="M168.8 149l.1.1 5.3-5.8h4.3l-5.3 5.8 4 5.9h-4.5l-3.8-5.8h-.1l-.7 5.8h-3.7l2.2-17.3h3.7" fill="#fff"/>
  <path d="M194.9 145.7h-4.2l-.7 4.8c-.1 1.2.5 1.9 1.6 1.9.8 0 1.5-.2 2.6-.7l-.4 2.7c-1.4.5-2.4.7-3.5.7-2.4 0-4.4-1.1-4-4.4l.6-5h-1.6l.1-.7 5.6-5.5.4.1-.4 3.6h4.3l-.4 1.1z" fill="#fff"/>
  <path d="M200.7 145h.1c1.2-1.4 2.5-2 4-2 2.1 0 4.1 1.3 3.7 4.5l-1 7.5h-3.7l.9-6.7c.2-1.7-.5-2.5-1.6-2.5-.8 0-1.7.5-2.7 1.8l-1 7.4h-3.6l2.2-17.3h3.7" fill="#fff"/>
  <path d="M217.5 149.2c-2.3.8-3.4 1.3-3.6 2.5-.1.7.4 1.2 1 1.2.8 0 1.5-.3 2.2-.9l.4-.8zm5 2.8c-1.1.6-2.6 1.1-3.6 1.1-1.2 0-1.8-.4-1.9-1.3-1.5 1-2.8 1.3-4 1.3-1.9 0-3.1-1.4-2.9-2.9.4-2.8 2.5-3.4 7.6-4.9.2-1.1-.2-2-1.7-2-1.5 0-3.3.8-4.6 2l.4-3c1.6-.9 3.4-1.4 5.2-1.4 3 0 4.8 1 4.5 3.6l-.7 5.3c-.1.6.1.8.5.8.3 0 .6 0 1.5-.7l-1.2 2.5z" fill="#fff"/>
  <path d="M233.9 143.2h-4.3l.5-3.7h-.4l-5.6 5.5-.1.7h1.7l-.7 5c-.4 3.3 1.5 4.4 4 4.4 1.1 0 2.1-.2 3.5-.7l.3-2.7c-1 .5-1.8.7-2.5.7-1.2 0-1.7-.7-1.6-1.9l.6-4.8h4.3l-.4-1.1z" fill="#fff"/>
  <path d="M245.1 154.9h-3.7l2.3-17.3h3.7l-2.3 17.3zm9.1-15.5c-.1 1.1-1.1 2-2.2 2-1.1 0-1.9-.9-1.8-2 .2-1.1 1.2-2 2.3-2s2.1.9 1.7 2zm-2.2 15.5h-3.7l1.5-11.7h3.7l-1.5 11.7z" fill="#fff"/>
  <path d="M264.3 146.5c-1.5-1-3-1.3-3.8-1.3-.4 0-1.3.1-1.4.9-.2 1.3 5.6 1.4 5.1 5.3-.3 2.4-2.2 3.8-5.2 3.8-1.9 0-3.6-.6-4.1-.9l.3-2.6c1.2.5 2.3 1 3.7 1 1.1 0 1.8-.4 1.9-.9.2-1.7-5.6-1.4-5.1-5.2.3-2.2 2.4-3.6 5.3-3.6 1.5 0 2.5.3 3.7.9l-.4 2.6z" fill="#fff"/>
  <path d="M275.6 145.7h-4.3l-.6 4.8c-.1 1.2.4 1.9 1.5 1.9.8 0 1.5-.2 2.5-.7l-.3 2.7c-1.4.5-2.4.7-3.5.7-2.4 0-4.4-1.1-4-4.4l.6-5h-1.6l.1-.7 5.6-5.5h.5l-.5 3.7h4.3l-.3 1.1z" fill="#fff"/>
  <path d="M285.6 147.7c.1-1.6-.7-2.5-2.1-2.5-1.5 0-2.6 1-2.9 2.5h5zm2.4 5.9c-2.4 1.5-4.6 1.5-5.5 1.5-4.1 0-6.5-2.4-6-6.1.5-3.6 3.4-6.1 7-6.1 3.4 0 5.9 2.5 5.2 6.7h-8.4c-.2 2.1 1.1 3.3 3.4 3.3 1.5 0 2.7-.4 4.6-1.7l-.3.6z" fill="#fff"/>
  <path d="M295.3 144.9c1.4-1.4 2.6-2 4.1-2 1.8 0 4.1 1.1 3.7 4.5l-1 7.5h-3.7l.9-7.1c.2-1.7-.5-2.4-1.5-2.4-.9 0-1.7.5-2.8 2l-1 7.5h-3.7l1.5-11.7h3.7l-.2 1.7z" fill="#fff"/>
  <path d="M314.3 146.5c-1.4-1-3-1.3-3.7-1.3-.5 0-1.3.1-1.5.9-.1 1.3 5.7 1.4 5.2 5.3-.3 2.4-2.2 3.8-5.3 3.8-1.9 0-3.6-.6-4.1-.9l.3-2.6c1.1.5 2.3 1 3.7 1 1.1 0 1.8-.3 1.9-.9.2-1.7-5.7-1.4-5.2-5.2.3-2.2 2.5-3.6 5.3-3.6 1.5 0 2.6.3 3.7.9l-.3 2.6z" fill="#fff"/>
  <path d="M174.3 103.6h-15.4l-2.5 6.8h-10.6l15-34.8h12.9l15 34.8h-11.9l-.7-.1-.8-.1zm27.9-19.9h-.1v26.7h-9.5V75.6h14.8l12.7 25.9.1-.1V75.6h9.5v34.8h-14.6l-12.9-26.7zm43.7 8.1h-.1v18.6h-10.6V75.6h10.6v15.3h.1l12-15.3h12.5l-13.1 15.3 14.3 19.5h-13.2l-12.5-18.5zm-137 18.5V75.6h18.2c7.2 0 13.2 3 13.2 9.1 0 4.3-4 6.9-8.2 7.6v.1c5 .7 9.1 3.6 9.1 8.5 0 10.1-14.2 9.5-14.5 9.5h-17.8zm10.5-28v7.1h5.4c2.9 0 4.7-1 4.7-3.7 0-2-1.8-3.4-4.3-3.4h-5.8zm0 21.3h6.1c2.7 0 4.7-1.5 4.7-3.6 0-1.9-1.6-3.8-3.9-3.9h-6.9v7.5zm40.1-6.8l10.2.1-4.9-14.5h-.2l-5.1 14.4z" fill="#fff"/>
</svg>
