<svg xmlns="http://www.w3.org/2000/svg" viewBox="0 0 200 70">
  <rect width="200" height="70" rx="12" fill="#7B1FA2"/>
  <path d="M42 20c12 0 22 10 22 22v16H36c-12 0-22-10-22-22v0c0-12 10-22 22-22zm-8 14h16v4l-6 2v6c0 4 3 7 7 7 2 0 4-1 5-2l3 4c-2 2-5 3-8 3-7 0-13-5-13-12v-8l-6-2v-4h6v-4h8v4z" fill="#fff"/>
  <text x="76" y="42" text-anchor="start" fill="#fff" font-family="Arial,Helvetica,sans-serif" font-weight="bold" font-size="24" letter-spacing="1">HALOPESA</text>
  <text x="76" y="56" text-anchor="start" fill="#CE93D8" font-family="Arial,Helvetica,sans-serif" font-size="11" letter-spacing="1">by HALOTEL</text>
</svg>
